<?xml version="1.0" standalone="yes"?>
<svg width="525" height="840">
<path style="fill:#486426; stroke:none;" d="M0 0C0.00315869 4.08551 0.0888402 7.32703 2 11C-1.60829 11.6014 -1.41446 35.5072 2 38C-2.2614 44.084 0 55.7617 0 63L0 127C0 133.287 -2.8636 149.75 2 154C-1.45147 158.928 0.0196397 167.131 0.000771605 173L0 217L2 215C-1.5957 232.298 0 251.136 0 269L0 361L0 396C-0.00190592 400.94 -1.08819 406.924 2 411C-1.52873 416.038 0 424.037 0 430L4 429L0 431L0 639L0 691C0 695.901 -1.89909 705.593 2 709C-2.49674 715.42 0 728.342 0 736L0 794C0 802.399 -1.95969 813.39 2 821C-0.625906 821 0.209296 822.763 1 825L3 825L7 822C6.97168 824.138 7.68352 823.841 10 824L9 827L13 829L13 834L8 833L16 836L15 831L20 834L19 837L24 837L22 839C33.3532 842.697 49.9984 840.06 62 839.847C65.1206 839.792 73.4002 841.599 74 838C80.2336 839.649 107.259 842.675 95 830L100 829L98 831L102 833L100 839C114.77 841.742 131.002 840 146 840L231.576 839.849L525 840L525 616L525 561C525 555.783 527.126 544.606 523 541C528.073 533.757 525 517.693 525 509L525 425C525 417.672 528.559 395.857 523 391C526.473 386.042 527.686 362.095 523 358C525.883 354.678 527.207 342.116 522 341L525 340L525 209L525 177C525 173.11 526.112 167.719 523 165C529.534 155.672 525 131.342 525 120L525 0L332 0L284 0C279.26 0 270.304 -1.78064 267 2C261.607 -1.77747 252.386 0 246 0L195 0L0 0z"/>
<path style="fill:#99b27b; stroke:none;" d="M266.333 0.666687L266.667 1.33331L266.333 0.666687M87.6667 1.33331L88.3333 1.66669L87.6667 1.33331M90 1L93 3L90 1M320 1L323 3L320 1M511 1L511 4L513 3L511 1M514 2L516 4L516 2L514 2M274.667 3.33331L275.333 3.66669L274.667 3.33331M257 4L261 5L257 4M514 6L519 8L519 4L514 6M280.333 5.66669L280.667 6.33331L280.333 5.66669M446.667 5.33331L447.333 5.66669L446.667 5.33331M0 9L2 11L2 9L0 9M518.667 11.3333L519.333 11.6667L518.667 11.3333M274 12L275 16L274 12M255 14L254 17C255.766 16.0214 255.955 15.7782 255 14M504 14L505 16L507 14L504 14M194.667 15.3333L195.333 15.6667L194.667 15.3333M258 16L262 16L258 16M488 16L493 17C490.99 15.526 490.478 15.5355 488 16M65 17L66 18L65 17M289.333 17.6667L289.667 18.3333L289.333 17.6667M3.66667 18.3333L4.33333 18.6667L3.66667 18.3333M507.333 18.6667L507.667 19.3333L507.333 18.6667M229 21L230 24C225.205 28.1904 228.547 38.4428 229 44C218.37 41.0502 202.656 42.463 192 45C188.541 41.0625 174.186 42.0948 170 45L179 46L180 52L177 54C180.712 53.9999 179.181 60.0623 179 63L179.333 88C179.333 90.5937 177.798 94.3545 181 95.6667C189.769 99.2605 204.757 95.1149 214 95.5L306 96L336 95L344.833 95.5C347.367 93.6756 346 85.821 346 83L346 46L428 46.9954L443 47C440.406 55.777 438.761 81.5209 444 89C439.507 94.9317 442 108.669 442 116L442 188C448.625 183.705 445 160.584 445 153L445 46C456.129 48.4198 470.447 46 482 46C485.909 46 492.259 44.8245 495.698 47.0278L501.533 55.9421L511.975 63.2778C516.887 70.9329 513 91.9968 513 101L512.961 183C513.393 193.258 511.078 205.116 514 215C512.187 216.556 512.187 217.444 514 219C509.78 227.44 513 245.187 513 255L512 310L513 339L513 368C513 372.023 514.19 377.797 511 377C512.682 382.352 513.956 385.911 511 391C515.279 398.693 513 410.427 513 419L346 419C346 408.291 344.981 397.942 340.663 388C312.437 323.015 217.685 318.788 186.711 384C181.248 395.501 180 406.448 180 419C124.198 419 68.4273 416.62 13 419L13 314L10 314L10.1512 373.576L10 479L10 522C10 527.592 11.4943 535.388 8 540C12.7812 548.597 10 563.342 10 573L10 650C10 658.803 13.3869 676.89 8 684L10 689C14.5643 686.041 13 678.904 13 674L13 632L17 633L13 631L13 530C13 515.249 9.69329 495.85 15 482C11.5924 482.682 12.0584 450.265 15 451C11.53 441.944 13 431.569 13 422L16 424C16 420.179 30.2882 422.008 33.8333 421.833L74 422C79.8733 421.918 87.0157 420.677 92 424C98.0378 419.901 107.018 422.351 114.039 421.806L159 421.001L179 421C179.039 480.427 244.366 521.915 298 496.602C319.75 486.337 338.119 465.534 343.765 442C345.178 436.109 348.205 427.706 346 422L364.961 421.949L410 421.178C417.629 421.144 426.872 422.949 434 420C437.197 423.658 445.423 422 450 422L496 421.985C502.633 422.148 518.93 420.248 511 432C516.041 441.064 512.807 456.806 513.025 466.985L512.911 558L513.01 584.996C513.035 588.186 511.626 592.788 514 595C511.386 603.842 513 614.805 513 624L513 681C513 690.977 510.31 705.828 514 715L511 716C514.005 721.403 513 727.99 513 734L516 734L515.997 520.001L515.039 414L515.95 331.039C515.787 324.711 518.878 308.263 514 304C517.116 299.551 516.034 293.261 515.997 288.001L515.463 250L516 91C517.359 93.7106 518.172 94.8875 521 96L520 88C517.821 87.2736 518.22 87.5605 519 86C513.857 83.717 518.209 77.2075 514 75L520 74C513.09 67.6761 515 52.8408 515 44L450 42.7986C442.713 42.9218 429.998 46.5444 424 42L393 45C388.509 39.86 372.284 43.2322 366 43.8303C343.989 45.9251 319.213 43.7994 297 43C297 37.571 298.817 28.2362 296.397 23.3179C294.307 19.0718 277.727 19.8562 275 23C261.124 18.3099 243.494 21 229 21M29.3333 24.6667L29.6667 25.3333L29.3333 24.6667z"/>
<path style="fill:#486426; stroke:none;" d="M231 24L231 44C243.79 44 257.386 41.7822 270 44C270.726 41.8208 270.439 42.2197 272 43L275 40L273 43L294 43L295 25C276.399 19.5018 250.434 24 231 24z"/>
<path style="fill:#99b27b; stroke:none;" d="M85 25L84 28L85 25M419.333 25.6667L419.667 26.3333L419.333 25.6667M461.333 26.6667L461.667 27.3333L461.333 26.6667M75 27L78 29L75 27M92 27L92 29L94 29L94 27L92 27M71 36L71 38L73 38L71 36M0.666667 38.3333L1.33333 38.6667L0.666667 38.3333M440 38L438 42L442 41L440 38M199.667 39.3333L200.333 39.6667L199.667 39.3333M8 308L11 313C14.3627 308.561 13 301.379 13 296L13 256L17 257L13 255L13 154C13 139.249 9.69333 119.85 15 106C11.7486 106 13 101.718 13 99L13 77L16 79L15 77L19 77L13 76L13 61L18 63L16 62C17.4491 63.6462 17.7922 63.4534 20 63L28 46C44.2499 46 65.407 49.7019 81 46L80.9961 93L81 194L164 194.29C173.372 194.415 184.769 192.092 193.91 194.303L203 199L202 202L227.004 219.612C248.139 229.37 277.896 230.55 299 219.599C306.174 215.876 313.308 211.233 319.08 205.576C322.802 201.928 326.75 195.649 332.004 194.318C344.821 191.071 361.825 194.081 374.996 194.395L445 194L445 189C425.078 193.697 403.484 190.975 383 190.71L306 190.791L84 191C80.262 161.423 82.9669 128.808 84 99L85 101L83.0864 85.9962C82.4187 75.2512 86.0082 63.4022 83 53L86 52L84 47L95 47L94 50L96 47L164 46C160.266 40.8267 150.737 44.4052 144.91 43.9753C124.729 42.4861 104.158 42.9788 83.9606 43.6497L31.7145 43.1157C27.5215 43.0089 14.7424 41.6046 11.6034 44.0316C8.28295 46.5989 9.99543 56.2606 10 60L9.99923 107L10.0108 253.996L10 292C10 297.162 11.2279 303.739 8 308M167 44L169 46L169 44L167 44z"/>
<path style="fill:#486426; stroke:none;" d="M182 46L182 80C181.999 82.8877 180.493 89.844 182.832 91.9722L197 95C207.657 89.0732 227.033 93 239 93C243.577 93 251.803 94.6583 255 91C282.02 97.8516 315.153 93 343 93L343 67L339 65L343 65L343 46C289.835 46 234.86 42.2664 182 46M500 46C501.732 53.2045 505.819 57.1848 513 59L513 46L500 46M13 59C19.9419 57.2451 24.5044 53.3849 25 46C13.9751 46.0013 13 48.3556 13 59z"/>
<path style="fill:#99b27b; stroke:none;" d="M311.667 48.3333L312.333 48.6667L311.667 48.3333M119 49L119 51L121 51L119 49M432 52C434.612 52.8732 435.547 52.2761 437 50L432 52M271.667 51.3333L272.333 51.6667L271.667 51.3333M111 52L114 54L111 52M319 52L322 53L319 52M407.667 52.3333L408.333 52.6667L407.667 52.3333M124 53L127 55L124 53M138 54L140 56L140 54L138 54M369.333 54.6667L369.667 55.3333L369.333 54.6667M436.667 54.3333L437.333 54.6667L436.667 54.3333M16 55L16 57L18 57L16 55M204 57L204 59L206 59L206 57L204 57M35 59L35 63L38 60L35 59M300 62L301 63L300 62M423.667 62.3333L424.333 62.6667L423.667 62.3333M3.33333 63.6667L3.66667 64.3333L3.33333 63.6667M88.6667 63.3333L89.3333 63.6667L88.6667 63.3333M202 63L200 64C201.482 64.7911 202.796 64.8699 202 63M408.667 63.3333L409.333 63.6667L408.667 63.3333M432 63L430 64C431.482 64.7911 432.796 64.8697 432 63M300 66L303 66L302 64L300 66M70 65L73 66L70 65M109 65L112 67L109 65M23 66L22 68L24 68L23 66M96.3333 66.6667L96.6667 67.3333L96.3333 66.6667M329 67L334 68L329 67M517 70L521 71L517 70M410 74L410 76L412 76L410 74M517.667 75.3333L518.333 75.6667L517.667 75.3333M336.667 76.3333L337.333 76.6667L336.667 76.3333M2 79L2 81L4 81L2 79M335.667 79.3333L336.333 79.6667L335.667 79.3333M332.667 80.3333L333.333 80.6667L332.667 80.3333M518.667 83.3333L519.333 83.6667L518.667 83.3333M30 84L33 86L30 84M397.333 84.6667L397.667 85.3333L397.333 84.6667M49.3333 85.6667L49.6667 86.3333L49.3333 85.6667M198.667 85.3333L199.333 85.6667L198.667 85.3333M7.33333 86.6667L7.66667 87.3333L7.33333 86.6667M322.333 86.6667L322.667 87.3333L322.333 86.6667M446 86L446 88L448 88L448 86L446 86M98 87L101 88L98 87M353 87L355 90L356 87L353 87M300.667 88.3333L301.333 88.6667L300.667 88.3333z"/>
<path style="fill:#486426; stroke:none;" d="M516.667 88.3333L517.333 88.6667L516.667 88.3333z"/>
<path style="fill:#99b27b; stroke:none;" d="M40 89L43 90L40 89M222.667 90.3333L223.333 90.6667L222.667 90.3333M310 90L313 91L310 90M29.3333 91.6667L29.6667 92.3333L29.3333 91.6667M370 91L372 93L372 91L370 91M141.667 98.3333L142.333 98.6667L141.667 98.3333M297 100L300 98L297 100M110 102L110 104L112 104L110 102M171.333 102.667L171.667 103.333L171.333 102.667M340.333 102.667L340.667 103.333L340.333 102.667M68.6667 104.333L69.3333 104.667L68.6667 104.333M338.667 105.333L339.333 105.667L338.667 105.333M452.667 105.333L453.333 105.667L452.667 105.333M393 110L398 111C395.99 109.526 395.478 109.536 393 110M275.667 111.333L276.333 111.667L275.667 111.333M74 114L79 114C77.2315 111.966 75.7685 111.966 74 114M304 114L307 113C305.222 112.045 304.979 112.234 304 114M454 114L454 116L456 114L454 114M510.333 115.667L510.667 116.333L510.333 115.667M22 120L26 122L22 120M252.333 123.667L252.667 124.333L252.333 123.667M482.333 123.667L482.667 124.333L482.333 123.667M58.3333 124.667L58.6667 125.333L58.3333 124.667M190.333 124.667L190.667 125.333L190.333 124.667M345 124L349 127L345 124M75 125L79 127L75 125M305 125L309 127L305 125M359 127L361 129L361 127L359 127M380 127L382 130L382 127L380 127M452.333 129.667L452.667 130.333L452.333 129.667M60.3333 130.667L60.6667 131.333L60.3333 130.667M466 130L465 133C466.766 132.021 466.955 131.778 466 130M165.333 133.667L165.667 134.333L165.333 133.667M173 133L176 135L173 133M304.667 134.333L305.333 134.667L304.667 134.333M261.147 138.851C255.454 140.689 259.203 149.507 264.722 147.353C270.042 145.276 266.412 137.152 261.147 138.851M282 138L283 139L282 138M274.333 144.667L274.667 145.333L274.333 144.667M504 144L503 146L505 146L504 144M448.667 151.333L449.333 151.667L448.667 151.333M0.666667 154.333L1.33333 154.667L0.666667 154.333M246.333 154.667L246.667 155.333L246.333 154.667M390.333 159.667L390.667 160.333L390.333 159.667M385.333 161.667L385.667 162.333L385.333 161.667M2.66667 162.333L3.33333 162.667L2.66667 162.333M52 162L52 165L54 162L52 162M0.333333 164.667L0.666667 165.333L0.333333 164.667M523.667 164.333L524.333 164.667L523.667 164.333M374 168L377 168L376 166L374 168M322.667 169.333L323.333 169.667L322.667 169.333M422 169L418 171C420.162 171.917 422.452 171.721 422 169M506.667 169.333L507.333 169.667L506.667 169.333M16.6667 171.333L17.3333 171.667L16.6667 171.333M53.3333 183.667L53.6667 184.333L53.3333 183.667M36 187L39 188L36 187M26 191L28 196L35 196L26 191M464.667 192.333L465.333 192.667L464.667 192.333z"/>
<path style="fill:#486426; stroke:none;" d="M200 194C219.496 224.525 263.803 230.739 294.999 218.014C306.102 213.485 319.752 205.254 325 194L200 194z"/>
<path style="fill:#99b27b; stroke:none;" d="M18 194L22 196L18 194M341 199L345 201L341 199M22 200L21 204L28 205L22 200M36 202L39 200L36 202M353.667 200.333L354.333 200.667L353.667 200.333M55.3333 202.667L55.6667 203.333L55.3333 202.667M165.333 202.667L165.667 203.333L165.333 202.667M395.333 202.667L395.667 203.333L395.333 202.667M18 205L18 209C19.2429 207.097 19.2429 206.903 18 205M24.6667 207.333L25.3333 207.667L24.6667 207.333M148.333 207.667L148.667 208.333L148.333 207.667M348 207L344 208C345.66 209.317 349.104 209.944 348 207M65.3333 208.667L65.6667 209.333L65.3333 208.667M126 208L129 211L133 208L126 208M58.3333 209.667L58.6667 210.333L58.3333 209.667M104.667 211.333L105.333 211.667L104.667 211.333M151.333 214.667L151.667 215.333L151.333 214.667M1 215L0 218C2.1579 217.022 2.5007 216.812 1 215M52.6667 215.333L53.3333 215.667L52.6667 215.333M339.667 215.333L340.333 215.667L339.667 215.333M14.3333 217.667L14.6667 218.333L14.3333 217.667M17 217L17 219L19 219L19 217L17 217M359 223L362 223L361 221L359 223M110.667 223.333L111.333 223.667L110.667 223.333M18 228L21 230L18 228M390.333 228.667L390.667 229.333L390.333 228.667M135 229L137 231L137 229L135 229M27 230L28 234L31 234L27 230M74 231L74 233L76 231L74 231M90.6667 231.333L91.3333 231.667L90.6667 231.333M0.333333 234.667L0.666667 235.333L0.333333 234.667M355.333 234.667L355.667 235.333L355.333 234.667M142 235L142 237L144 237L142 235M372.333 235.667L372.667 236.333L372.333 235.667M475.667 238.333L476.333 238.667L475.667 238.333M421 239L418 240C419.523 240.855 421.945 241.288 421 239M17.3333 243.667L17.6667 244.333L17.3333 243.667M27 244C28.5399 245.803 29.5974 245.832 32 246L27 244M68 245L68 247L70 245L68 245M35 251L35 253L37 253L35 251M16.6667 253.333L17.3333 253.667L16.6667 253.333M505.667 255.333L506.333 255.667L505.667 255.333M278.667 258.333L279.333 258.667L278.667 258.333M30 260C28.7024 262.185 28.7887 262.693 31 264L30 260M24 265L27 267L24 265M504.667 265.333L505.333 265.667L504.667 265.333M37.3333 267.667L37.6667 268.333L37.3333 267.667M40.3333 270.667L40.6667 271.333L40.3333 270.667M76 272L79 273L76 272M359.667 274.333L360.333 274.667L359.667 274.333M204.667 277.333L205.333 277.667L204.667 277.333M152 281L153 283L155 281L152 281M19.3333 285.667L19.6667 286.333L19.3333 285.667M345 286L345 288L347 288L345 286M218.667 290.333L219.333 290.667L218.667 290.333M448.667 290.333L449.333 290.667L448.667 290.333M164 292L168 292L164 292M394 292L398 292L394 292M240 297L243 298L240 297M470 297L471 299L473 297L470 297M488.667 299.333L489.333 299.667L488.667 299.333M492.667 300.333L493.333 300.667L492.667 300.333M3 303L6 303L5 301L3 303M15.6667 301.333L16.3333 301.667L15.6667 301.333M18 303L22 303L18 303M446.667 306.333L447.333 306.667L446.667 306.333M260 309L260 311L262 311L262 309L260 309M424.667 309.333L425.333 309.667L424.667 309.333M283 310L281 311C282.482 311.791 283.796 311.87 283 310M421.667 310.333L422.333 310.667L421.667 310.333M489 310L492 311L489 310M193 314L191 317C192.994 316.153 193.699 315.993 193 314M243.333 314.667L243.667 315.333L243.333 314.667M473.333 314.667L473.667 315.333L473.333 314.667M424.667 316.333L425.333 316.667L424.667 316.333M491 321L491 324L493 323L491 321M197.667 323.333L198.333 323.667L197.667 323.333M102.333 324.667L102.667 325.333L102.333 324.667M442 330L445 328L442 330M276 331L280 329L276 331M506 331L510 329L506 331M181.667 330.333L182.333 330.667L181.667 330.333M179.667 332.333L180.333 332.667L179.667 332.333M279.667 332.333L280.333 332.667L279.667 332.333M225 333L224 335L226 335L225 333M467 334L470 335L467 334M501.667 335.333L502.333 335.667L501.667 335.333M25.6667 337.333L26.3333 337.667L25.6667 337.333M36 337L39 338L36 337z"/>
<path style="fill:#486426; stroke:none;" d="M182 418L216 419.014C228.457 419.259 242.581 420.815 254.91 418.853L262.039 416.012L289 419C283.99 421.674 267.59 425.148 262.09 424.192L254.961 421.317L182 421C182 446.169 194.152 470.42 214.425 485.62C219.891 489.719 232.296 499.441 239 495C244.986 504.642 263.539 500.502 273 500.039C315.188 497.971 339.226 459.775 344 422L290 421L290 419L343 419C343 394.179 332.959 373.359 313.985 357.145C309.797 353.566 294.964 341.414 290 347C284.105 335.347 258.697 339.102 248 340.576C210.816 345.7 182.102 380.919 182 418z"/>
<path style="fill:#99b27b; stroke:none;" d="M199.667 340.333L200.333 340.667L199.667 340.333M522 340L525 341L522 340M26.3333 341.667L26.6667 342.333L26.3333 341.667M45 346L47 348L47 346L45 346M503 347L508 347L503 347M81.6667 347.333L82.3333 347.667L81.6667 347.333M237.667 347.333L238.333 347.667L237.667 347.333M467 347L467 349L469 347L467 347M291 352L291 356L294 353L291 352M341 352L344 354L341 352M353.667 353.333L354.333 353.667L353.667 353.333M407.667 353.333L408.333 353.667L407.667 353.333M483 353L480 354C481.522 354.855 483.945 355.288 483 353M251.667 354.333L252.333 354.667L251.667 354.333M18 356L14 358C17.2887 359.283 20.7436 358.79 23 356L18 356M492.333 357.667L492.667 358.333L492.333 357.667M523.667 357.333L524.333 357.667L523.667 357.333M57 359L59 361L59 359L57 359M17.3333 360.667L17.6667 361.333L17.3333 360.667M432 362L430 365C431.849 364.033 432.722 363.86 432 362M16 363L18 366L16 363M497 363L498 364L497 363M282 364L283 365L282 364M408 364L411 365L408 364M1 365L1 369L1 365M275.667 365.333L276.333 365.667L275.667 365.333M36 368L39 368L38 366L36 368M363.333 366.667L363.667 367.333L363.333 366.667M17 367L17 369L19 369L17 367M381.333 367.667L381.667 368.333L381.333 367.667M346 368L347 371L346 368M208 370L207 372L209 372L208 370M274 370L273 372L275 372L274 370M74 375L77 373L74 375M145.667 373.333L146.333 373.667L145.667 373.333M42.6667 374.333L43.3333 374.667L42.6667 374.333M359 376L362 376L361 374L359 376M107.333 375.667L107.667 376.333L107.333 375.667M49 380L47 383L48 384L49 380M327 380L328 381L327 380M365 381L365 383L367 383L365 381M270 382L271 383L270 382M0 384L0 387L0 384M74.6667 384.333L75.3333 384.667L74.6667 384.333M15.6667 385.333L16.3333 385.667L15.6667 385.333M92.3333 385.667L92.6667 386.333L92.3333 385.667M322 385L322 387L324 387L322 385M6 386L7 389L9 386L6 386M88 386L91 387L88 386M372 388L370 391L371 392L372 388M330.333 389.667L330.667 390.333L330.333 389.667M86 390L85 391L88 393L86 390M293.667 390.333L294.333 390.667L293.667 390.333M523.667 390.333L524.333 390.667L523.667 390.333M67 391L67 394C69.0059 392.873 69.0059 392.127 67 391M108.667 393.333L109.333 393.667L108.667 393.333M411.667 393.333L412.333 393.667L411.667 393.333M82 394L83 395L82 394M29 395C30.9467 397.231 33.0532 397.231 35 395L29 395M85 400L88 395C85.3928 396.439 84.9183 397.038 85 400M16 403C15.2736 405.179 15.5605 404.78 14 404L17 407L19 404L16 403M67 405L69 407L69 405L67 405M133.667 407.333L134.333 407.667L133.667 407.333M0 410L0 412L2 412L0 410M127.667 410.333L128.333 410.667L127.667 410.333M357.667 410.333L358.333 410.667L357.667 410.333M74 413L78 412C75.9536 411.249 75.4043 411.344 74 413M14.3333 425.667L14.6667 426.333L14.3333 425.667M0 430C2.04645 430.751 2.5957 430.656 4 429L0 430M15 430L20 435L21 432L18 433L15 430M119 431L119 433L121 433L119 431M111 433L114 435L111 433M69 434L72 436L69 434M319.667 434.333L320.333 434.667L319.667 434.333M448.667 434.333L449.333 434.667L448.667 434.333M164 436C166.046 436.751 166.596 436.656 168 435L164 436M394 436L397 437L394 436M18 437L20 440L18 437M115 439L115 441L117 441L117 439L115 439M345 439L345 441L347 441L345 439M68 441L66 444C68.9898 445.133 71.1048 444.224 74 443L69 443L70 441L68 441M79 442L82 451L86 450L84 447L90 446L82 445L84 443L79 442M25 442L25 445L25 442M345.333 442.667L345.667 443.333L345.333 442.667M318.667 445.333L319.333 445.667L318.667 445.333M52 446L52 448L54 448L52 446M71.6667 447.333L72.3333 447.667L71.6667 447.333M118.333 451.667L118.667 452.333L118.333 451.667M348 451L348 454L348 451M145.667 456.333L146.333 456.667L145.667 456.333M375.667 456.333L376.333 456.667L375.667 456.333M7.33333 462.667L7.66667 463.333L7.33333 462.667M327 463L328 464L327 463M5 467L7 471L9 467L5 467M87 467C88.8345 470.111 90.8347 470.927 94 469L93 468L92 470L87 467M322.333 468.667L322.667 469.333L322.333 468.667M98 469L101 470L98 469M245 470L249 470L245 470M417.667 469.333L418.333 469.667L417.667 469.333M475 470L479 470L475 470M461.333 471.667L461.667 472.333L461.333 471.667M81 472L84 474L81 472M312.333 476.667L312.667 477.333L312.333 476.667M82 477L83 478L82 477M212 478L210 479C211.482 479.791 212.796 479.87 212 478M454 478L454 480L456 478L454 478M68 480L68 482L70 482L70 480L68 480M34 483L37 485L34 483M340 484L340 486L342 486L340 484M448 485L449 487L451 485L448 485M108.667 487.333L109.333 487.667L108.667 487.333M227.333 487.667L227.667 488.333L227.333 487.667M234.667 487.333L235.333 487.667L234.667 487.333M102.667 489.333L103.333 489.667L102.667 489.333M429.333 491.667L429.667 492.333L429.333 491.667M395.333 492.667L395.667 493.333L395.333 492.667M193.667 496.333L194.333 496.667L193.667 496.333M504 496L504 498L506 498L506 496L504 496M419.333 498.667L419.667 499.333L419.333 498.667M36 499L36 501L38 501L38 499L36 499M482.333 499.667L482.667 500.333L482.333 499.667M40.3333 502.667L40.6667 503.333L40.3333 502.667M193 505L195 508L193 505M228.333 505.667L228.667 506.333L228.333 505.667M458.333 505.667L458.667 506.333L458.333 505.667M75 507L79 509L75 507M117.667 507.333L118.333 507.667L117.667 507.333M305 507L309 509L305 507M177 509L181 509L177 509M432 508L430 509C431.482 509.791 432.796 509.87 432 508M359 509L361 511L361 509L359 509M380 509L382 512L382 509L380 509M505.667 515.333L506.333 515.667L505.667 515.333M383.333 516.667L383.667 517.333L383.333 516.667M470 529L472 531L472 529L470 529M476 530L475 532L477 532L476 530M217 531L216 533L218 533L217 531M258.667 531.333L259.333 531.667L258.667 531.333M447 531L446 533L448 533L447 531M156.667 532.333L157.333 532.667L156.667 532.333M386.667 532.333L387.333 532.667L386.667 532.333M420.667 533.333L421.333 533.667L420.667 533.333M452.667 535.333L453.333 535.667L452.667 535.333M387.333 536.667L387.667 537.333L387.333 536.667M442.667 538.333L443.333 538.667L442.667 538.333M0.333333 540.667L0.666667 541.333L0.333333 540.667M18.6667 540.333L19.3333 540.667L18.6667 540.333M283 540L281 543C282.849 542.033 283.722 541.86 283 540M523.667 540.333L524.333 540.667L523.667 540.333M259 542L262 543L259 542M489 542L492 543L489 542M194.333 544.667L194.667 545.333L194.333 544.667M386 545L386 547L388 547L388 545L386 545M251.667 546.333L252.333 546.667L251.667 546.333M171.333 547.667L171.667 548.333L171.333 547.667M401.333 547.667L401.667 548.333L401.333 547.667M452 550L455 551L452 550M322 551L322 553L324 551L322 551M402 551L400 552C401.482 552.791 402.796 552.87 402 551M502 551L501 553L503 553L502 551M213 553C213.513 555.475 213.604 555.575 216 555L213 553M231 553L231 555L233 553L231 553M443 556L446 554L443 556M452.333 556.667L452.667 557.333L452.333 556.667M184.667 559.333L185.333 559.667L184.667 559.333M431 562L432 563L431 562M25.6667 563.333L26.3333 563.667L25.6667 563.333M36 563L39 564L36 563M425.667 566.333L426.333 566.667L425.667 566.333M4 568L5 572C5.55296 569.992 5.30298 569.668 4 568M492 570L492 572L494 572L492 570M45 572L47 574L47 572L45 572M55.3333 578.667L55.6667 579.333L55.3333 578.667M165.333 578.667L165.667 579.333L165.333 578.667M395.333 578.667L395.667 579.333L395.333 578.667M177.667 579.333L178.333 579.667L177.667 579.333M318.667 580.333L319.333 580.667L318.667 580.333M18 581L18 585L23 582L18 581M68 581L69 582L68 581M40.3333 584.667L40.6667 585.333L40.3333 584.667M65.3333 584.667L65.6667 585.333L65.3333 584.667M430 589L434 589L430 589M114 590C116.394 591.49 117.606 591.49 120 590L114 590M348 589L344 590C345.814 591.29 348.512 592.013 348 589M378 590L379 591L378 590M52.6667 591.333L53.3333 591.667L52.6667 591.333M17 593L17 595L19 595L17 593M104.667 593.333L105.333 593.667L104.667 593.333M345 593L344 595L346 595L345 593M48.3333 595.667L48.6667 596.333L48.3333 595.667M133 595L133 597L135 597L133 595M76 596L76 598L78 598L76 596M306.333 596.667L306.667 597.333L306.333 596.667M381.333 596.667L381.667 597.333L381.333 596.667M304 603L309 605C307.46 603.197 306.403 603.168 304 603M359 605L362 605L361 603L359 605M30 604L32 607L33 604L30 604M48 605L49 608L50 605L48 605M15 610L18 612L15 610M45 611L46 614L49 612L45 611M6 612L6 615C8.00594 613.873 8.00592 613.127 6 612M50 612L52 614L52 612L50 612M120 644C109.747 649.161 92.2984 646 81 646L81 748L83 748L83 648L220 648.86C234.478 649.494 256.709 643.771 270 650C283.735 646.73 299.92 649.001 314 649L387.424 648.861C405.064 649.131 424.698 650.953 442 648L442 658L445 658L445 646L356 646C349.468 646 324.213 648.146 326 641L323 641C321.997 635.143 315.658 631.19 311 627.872C297.848 618.504 281.153 613.001 265 613C246.384 612.999 228.251 617.529 213 628.764L194.791 645.4C184.201 649.789 169.075 644.17 158 645.171C148.642 646.016 127.807 649.915 120 644M304.667 613.333L305.333 613.667L304.667 613.333M475 614L478 615L475 614M517 616L520 615C518.222 614.045 517.979 614.234 517 616M48.6667 615.333L49.3333 615.667L48.6667 615.333z"/>
<path style="fill:#486426; stroke:none;" d="M247 619C230.794 614.555 208.522 634.105 200 646L250 646C255.792 646.002 265.327 644.464 270 648C284.945 641.312 309.717 646 326 646L322 639C319.207 638.547 318.364 637.999 318 641C309.983 622.93 285.08 617.13 267 615.845C261.561 615.458 250.824 614.556 247 619z"/>
<path style="fill:#99b27b; stroke:none;" d="M372.333 617.667L372.667 618.333L372.333 617.667M3.66667 619.333L4.33333 619.667L3.66667 619.333M17.3333 619.667L17.6667 620.333L17.3333 619.667M27 620L31 622L27 620M14 621L18 624L14 621M363.667 621.333L364.333 621.667L363.667 621.333M19.6667 622.333L20.3333 622.667L19.6667 622.333M312.333 623.667L312.667 624.333L312.333 623.667M23 625L26 629L23 625M51 625L54 627L51 625M297 625L297 629L300 628L297 625M19.6667 626.333L20.3333 626.667L19.6667 626.333M14.3333 627.667L14.6667 628.333L14.3333 627.667M272.667 632.333L273.333 632.667L272.667 632.333M467.667 633.333L468.333 633.667L467.667 633.333M508.667 634.333L509.333 634.667L508.667 634.333M5 637L8 640L5 637M500.333 648.667L500.667 649.333L500.333 648.667M258 652L261 653L258 652M244.667 654.333L245.333 654.667L244.667 654.333M306.667 654.333L307.333 654.667L306.667 654.333M22 656L22 658L24 658L22 656M359.667 656.333L360.333 656.667L359.667 656.333M442 659L442.139 738.424C442.004 747.23 438.847 763.643 444 771C439.952 776.343 442.014 787.405 442 794C414.08 791.67 384.461 798.277 357 792C357 795.55 349.043 794 346 794C348.23 783.743 342.83 771.688 348 762L345 745L285.004 744.025C279.23 743.956 267.408 741.743 264 747L322 747C326.853 747 338.812 744.842 341.972 749.434C344.309 752.829 343.198 760.188 343.08 764.17C342.808 773.403 341.906 785.102 344 794C334.012 794 312.005 798.065 304 792C294.683 797.181 279.369 793.572 269 793.71L182 794L182 747L211 747.25C214.364 747.04 218.602 748.524 221 746C232.892 749.515 249.585 746.992 262 747L262 744L201 745C196.474 745 183.083 742.746 180.028 746.603C177.699 749.543 179 756.469 179 760L180 795C170.317 792.138 158.076 794 148 794L84 794L83 749L81 749L80 794L28 794C27.3163 786.464 20.9921 778.453 13 778L13 748L16 750L15 748L19 748L13 747L13 690L10 690C7.01034 724.726 10 761.128 10 796L38 796L39 799C56.8661 792.915 81.2407 797 100 797L228 797C228.235 801.017 227.422 805.621 231 808L231 797L294 797L294 808L297 808C297.003 804.741 296.334 800.229 299.228 797.944C302.857 795.078 311.672 797.028 315.999 796.997L362 796.425C366.592 795.844 373.752 798.712 377 795C385.167 799.084 396.922 797 407 797C411.659 797 417.627 796.494 417 799C425.797 795.629 435.714 796.931 445 796.997L489 797.001C493.893 797.022 511.728 799.631 514.972 795.393C518.846 790.333 515.798 773.146 515.873 766.718C515.95 760.227 518.959 742.334 514 738L516 735C505.488 741.63 517.812 765.797 511.972 775.856L502.885 782.684L494.775 793.397C481.228 799.414 460.655 791.511 446 795C443.246 783.695 445 770.606 445 759L444.858 690.996C444.794 680.832 446.896 668.798 444 659L442 659M152 663L155 664L152 663M248 663L244 664C245.553 664.89 249.08 665.616 248 663M165 669L168 667L165 669M115 668L115 670L117 670L115 668M206 670L209 669C207.222 668.045 206.979 668.234 206 670M394 668L397 669L394 668M246 670L246 672L248 670L246 670M476 670L476 672L478 670L476 670M23.6667 671.333L24.3333 671.667L23.6667 671.333M39.3333 671.667L39.6667 672.333L39.3333 671.667M470.667 673.333L471.333 673.667L470.667 673.333M255 674C256.764 676.26 258.173 676.244 261 676L255 674M3.66667 678.333L4.33333 678.667L3.66667 678.333M51 684L54 684L53 682L51 684M274 683L276 686L274 683M281 687L284 685L281 687M260.667 686.333L261.333 686.667L260.667 686.333M489.667 686.333L490.333 686.667L489.667 686.333M251.667 690.333L252.333 690.667L251.667 690.333M481.667 690.333L482.333 690.667L481.667 690.333M259.603 693.032C255.125 696.46 260.808 703.783 265.566 700.124C270.62 696.237 263.98 689.683 259.603 693.032M288.667 693.333L289.333 693.667L288.667 693.333M101.667 697.333L102.333 697.667L101.667 697.333M331.667 697.333L332.333 697.667L331.667 697.333M92.6667 698.333L93.3333 698.667L92.6667 698.333M197.667 699.333L198.333 699.667L197.667 699.333M461.333 703.667L461.667 704.333L461.333 703.667M46 706L47 709L48 706L46 706M406 708L410 707C407.954 706.249 407.404 706.344 406 708M0.666667 709.333L1.33333 709.667L0.666667 709.333M262.667 710.333L263.333 710.667L262.667 710.333M454.667 710.333L455.333 710.667L454.667 710.333M501.667 711.333L502.333 711.667L501.667 711.333M25.6667 713.333L26.3333 713.667L25.6667 713.333M199.667 716.333L200.333 716.667L199.667 716.333M266.667 717.333L267.333 717.667L266.667 717.333M448 717L449 719L451 717L448 717M46.3333 722.667L46.6667 723.333L46.3333 722.667M429.333 723.667L429.667 724.333L429.333 723.667M394 724L396 726L396 724L394 724M428 728L431 729C431.013 726.398 429.476 725.494 428 728M55 729L56 730L55 729M406 729L410 730L406 729M18 732C17.2736 734.179 17.5605 733.78 16 733C17.4913 734.972 19.4979 734.387 18 732M21.6667 733.333L22.3333 733.667L21.6667 733.333M319 733L322 735L319 733M3.33333 734.667L3.66667 735.333L3.33333 734.667M104 734L104 736L106 736L106 734L104 734M341 734L344 736L341 734M260 737L263 735L260 737M16 736L18 738L18 736L16 736M490.667 736.333L491.333 736.667L490.667 736.333M23.3333 737.667L23.6667 738.333L23.3333 737.667M228.333 737.667L228.667 738.333L228.333 737.667M202 738L200 741C202.251 740.527 203.118 740.14 202 738M430 741L434 740C431.954 739.249 431.404 739.344 430 741M179.667 740.333L180.333 740.667L179.667 740.333M408.667 740.333L409.333 740.667L408.667 740.333M29 742L29 744L31 744L29 742M126 742L129 746L133 743L126 742M17.6667 744.333L18.3333 744.667L17.6667 744.333M76.3333 744.667L76.6667 745.333L76.3333 744.667M170.667 744.333L171.333 744.667L170.667 744.333M363.333 748.667L363.667 749.333L363.333 748.667M42 750L44 752L44 750L42 750M7 751L4 755L7 756L9 751L7 751M246 753L249 754L246 753M103 754L105 756L105 754L103 754M31 755L34 757L31 755M145.667 755.333L146.333 755.667L145.667 755.333M49.3333 756.667L49.6667 757.333L49.3333 756.667M246 758L249 756L246 758M7 757L7 759L9 759L7 757M107.333 757.667L107.667 758.333L107.333 757.667M110 757L110 759L112 759L112 757L110 757M340 757L340 759L342 759L342 757L340 757M141.333 759.667L141.667 760.333L141.333 759.667M371.333 759.667L371.667 760.333L371.333 759.667M309.333 766.667L309.667 767.333L309.333 766.667M92 767L92 769L94 769L92 767M257 767L256 770C257.766 769.021 257.955 768.778 257 767M322 767L322 769L324 769L322 767M411.667 769.333L412.333 769.667L411.667 769.333M372.333 770.667L372.667 771.333L372.333 770.667M420.667 770.333L421.333 770.667L420.667 770.333M505.667 771.333L506.333 771.667L505.667 771.333M14 772L17 773L14 772M86 772L88 775L86 772M123.333 772.667L123.667 773.333L123.333 772.667M510.333 775.667L510.667 776.333L510.333 775.667M99 776C99.2076 777.661 99.4954 777.54 98 778C100.372 779.239 101.416 777.357 99 776M35 778L39 781L35 778M464 781L470 781C467.576 779.482 466.645 779.863 464 781z"/>
<path style="fill:#486426; stroke:none;" d="M13 781L13 794L25 794L22 792C25.6989 785.981 17.8794 782.517 13 781z"/>
<path style="fill:#99b27b; stroke:none;" d="M24 782L29 783L24 782M102 782L105 785L102 782M332 782L334 785L337 783L332 782z"/>
<path style="fill:#486426; stroke:none;" d="M501 794L513 794C513 791.138 513.937 785.977 511.972 783.619C506.825 777.443 501.121 790.257 501 794z"/>
<path style="fill:#99b27b; stroke:none;" d="M110 783L110 785L112 785L110 783M143.667 783.333L144.333 783.667L143.667 783.333M256 788L262 783C258.674 783.814 257.094 784.71 256 788M482.333 783.667L482.667 784.333L482.333 783.667M337 786L340 787L337 786M523.333 786.667L523.667 787.333L523.333 786.667M253 787L251 788C252.482 788.791 253.796 788.87 253 787M5 788L8 791L5 788M480 788L483 789L480 788M335.667 789.333L336.333 789.667L335.667 789.333M51.3333 790.667L51.6667 791.333L51.3333 790.667M262.333 791.667L262.667 792.333L262.333 791.667M308 791L311 793L308 791M488 791L489 793L491 791L488 791M492 791L492 793L494 791L492 791M23 798L23 800L25 800L23 798M30 799L34 799L30 799M165 798L166 800L168 798L165 798M272.667 798.333L273.333 798.667L272.667 798.333M502.667 798.333L503.333 798.667L502.667 798.333M275.667 799.333L276.333 799.667L275.667 799.333M379.667 800.333L380.333 800.667L379.667 800.333M277.333 801.667L277.667 802.333L277.333 801.667M280 801L280 803L282 803L282 801L280 801M26.6667 803.333L27.3333 803.667L26.6667 803.333M91 803L91 806L93 805L91 803M99 803L101 805L101 803L99 803M522 803L523 804L522 803M274 804L273 806L275 806L274 804M508 804L511 805L508 804M33.3333 805.667L33.6667 806.333L33.3333 805.667M14 806L18 809L14 806M75 806L79 808L75 806M117 806L120 808L117 806M305 806L309 808L305 806M347 806L350 808L347 806M22.6667 807.333L23.3333 807.667L22.6667 807.333M516 807L515 809L517 809L516 807M130.333 808.667L130.667 809.333L130.333 808.667M359 808L359 810L361 810L361 808L359 808M380 808L382 811L380 808M12 809L12 811L14 809L12 809M229 809L229 819L261 819L260 815C255.457 815.843 250.875 816.936 247 814C241.99 816.787 236.546 816.07 231 816L231 809L229 809M294 809L294 816L262 816L263 819C266.169 818.493 269.79 819.434 272 817L280 820L280 818C289.763 820.811 296.992 819.805 297 809L294 809M133.333 811.667L133.667 812.333L133.333 811.667M135 811C136.127 813.006 136.873 813.006 138 811L135 811M363.333 811.667L363.667 812.333L363.333 811.667M367 811L365 814C366.994 813.153 367.699 812.993 367 811M4 812L7 813L4 812M166.667 812.333L167.333 812.667L166.667 812.333M285.333 812.667L285.667 813.333L285.333 812.667M395.667 812.333L396.333 812.667L395.667 812.333M90 818L95 820L93 815L90 818M111 815L114 817L111 815M341 815L344 817L341 815M381 816C383.131 817.209 383.869 817.209 386 816L381 816M370.333 816.667L370.667 817.333L370.333 816.667M22 817C22.9939 819.203 22.6699 819.048 25 819L23 822L24 823L26 818L22 817M75 820L78 817L75 820M0 819L2 821L2 819L0 819M31 819L34 821L31 819M107 819L106 820L111 823L107 819M115 821L115 823L117 823L115 821M345 821L345 823L347 823L345 821M4 822L0 824L2 826C1.25639 829.678 0.938719 832.825 5 834L4 840L18 840L16 839L23 840L24 837L19 837L20 834L16 831L16 836L8 834L13 834L13 829L10 824C6.73936 824 6.46414 824.143 7 822L4 822M153.333 822.667L153.667 823.333L153.333 822.667M274 822L275 826L274 822M381 824L382 825L381 824M39.6667 825.333L40.3333 825.667L39.6667 825.333M378.667 825.333L379.333 825.667L378.667 825.333M489 827L492 827L490 825L489 827z"/>
<path style="fill:#486426; stroke:none;" d="M0 826L0 840L4 840L5 835C2.06171 832.128 1.54147 830.025 2 826L0 826z"/>
<path style="fill:#99b27b; stroke:none;" d="M97 826L97 828L100 828L100 826L97 826M254 826L257 828L254 826M15 827L18 829L15 827M342 827L342 830L344 830L344 827L342 827M29 828L33 830L29 828M20 829L18 830C19.482 830.791 20.7964 830.87 20 829M95 830C97.907 834.097 98.2372 835.486 96 840L103 840L100 839L102 833C99.9232 831.754 97.0225 830.744 100 830L95 830z"/>
<path style="fill:#486426; stroke:none;" d="M4.66667 830.333L5.33333 830.667L4.66667 830.333z"/>
<path style="fill:#99b27b; stroke:none;" d="M146.333 831.667L146.667 832.333L146.333 831.667M259 831C257.252 834.687 259.144 838.317 262 834L258 836L259 831M18.6667 832.333L19.3333 832.667L18.6667 832.333M49 832L55 837L54 833L49 832M134.667 832.333L135.333 832.667L134.667 832.333M250 832L253 833L250 832M322 833L325 836L322 833M94.3333 834.667L94.6667 835.333L94.3333 834.667M355 834L355 836L357 836L357 834L355 834M147.333 835.667L147.667 836.333L147.333 835.667M272.333 835.667L272.667 836.333L272.333 835.667M132 836C132.482 838.364 132.636 838.518 135 839L132 836z"/>
<path style="fill:#486426; stroke:none;" d="M16 838L20 840L16 838z"/>
<path style="fill:#99b27b; stroke:none;" d="M74 838L79 840L74 838M472.667 838.333L473.333 838.667L472.667 838.333M38 839L42 840L38 839M62.6667 839.333L63.3333 839.667L62.6667 839.333M194 839L197 840L194 839M231 839L232 840L231 839M252.667 839.333L253.333 839.667L252.667 839.333z"/>
</svg>
