<?xml version="1.0" standalone="no"?>
<!DOCTYPE svg PUBLIC "-//W3C//DTD SVG 20010904//EN"
 "http://www.w3.org/TR/2001/REC-SVG-20010904/DTD/svg10.dtd">
<svg version="1.0" xmlns="http://www.w3.org/2000/svg"
 width="525.000000pt" height="840.000000pt" viewBox="0 0 525.000000 840.000000"
 preserveAspectRatio="xMidYMid meet">
<metadata>
Created by potrace 1.11, written by Peter Selinger 2001-2013
</metadata>
<g transform="translate(0.000000,840.000000) scale(0.100000,-0.100000)"
fill="#000000" stroke="none">
<path d="M1 8114 c0 -160 4 -282 8 -279 10 6 9 -14 -1 -30 -4 -6 -7 -221 -7
-478 -1 -370 1 -467 11 -467 10 0 10 -2 2 -8 -17 -10 -18 -465 -1 -455 7 4 5
-2 -3 -12 -8 -10 -10 -16 -3 -12 6 4 15 3 18 -3 4 -6 1 -9 -7 -8 -11 3 -13
-129 -16 -735 -1 -458 1 -736 7 -732 5 3 12 1 16 -5 3 -5 0 -10 -7 -10 -11 0
-15 -22 -17 -90 -2 -69 1 -90 11 -90 9 0 9 -3 2 -8 -16 -11 -18 -394 -1 -404
9 -6 9 -8 0 -8 -17 0 -17 -62 -1 -79 10 -11 10 -12 1 -7 -10 5 -13 -9 -12 -58
1 -47 5 -64 13 -59 6 4 5 0 -2 -9 -10 -13 -10 -18 -1 -24 8 -5 9 -3 4 6 -5 9
-4 11 4 6 6 -4 9 -12 5 -17 -3 -5 -9 -7 -14 -4 -5 3 -9 -297 -9 -700 0 -544 3
-704 12 -698 9 5 9 3 1 -8 -17 -22 -19 -180 -2 -190 8 -5 8 -9 2 -9 -17 0 -19
-711 -1 -722 9 -6 9 -8 0 -8 -18 0 -18 -566 0 -573 9 -4 9 -6 0 -6 -7 -1 -13
-6 -13 -12 0 -5 6 -7 12 -3 10 6 11 4 1 -7 -8 -8 -13 -41 -13 -86 0 -52 4 -73
13 -73 8 0 9 -2 1 -8 -15 -9 -18 -558 -3 -567 5 -4 6 -12 2 -18 -4 -7 -8 -40
-9 -75 -1 -59 0 -62 20 -56 18 6 19 5 7 -10 -7 -9 -10 -16 -5 -16 4 0 0 -6
-11 -13 -14 -11 -15 -16 -5 -22 8 -5 17 -2 24 6 14 18 37 23 34 7 -2 -8 5 -12
16 -10 16 3 18 1 8 -11 -10 -11 -7 -16 12 -25 17 -7 24 -18 22 -36 -1 -21 -5
-24 -26 -21 -22 5 -22 4 5 -9 36 -18 55 -20 55 -6 0 6 -4 10 -10 10 -5 0 -7 7
-4 15 4 8 10 12 15 9 5 -3 8 -8 5 -12 -2 -4 0 -16 5 -27 6 -17 8 -17 8 -2 1 9
7 17 14 17 8 0 7 4 -3 10 -12 8 -11 10 5 8 11 -2 20 1 20 6 0 5 -10 10 -23 11
-27 1 -43 21 -34 43 4 12 7 10 13 -6 5 -12 14 -22 20 -22 8 0 7 5 -2 17 -12
14 -12 15 0 9 8 -5 16 -4 20 3 11 17 61 24 61 9 0 -10 2 -10 8 -1 5 7 13 9 21
4 22 -14 -24 -24 -49 -11 -25 13 -37 -8 -22 -37 11 -22 5 -43 -13 -43 -8 0
-16 -9 -20 -19 -7 -22 -42 -34 -49 -17 -2 6 -5 4 -5 -4 -1 -12 12 -16 62 -18
48 -1 58 1 44 9 -10 6 -25 8 -33 5 -8 -3 -14 -1 -14 3 0 15 27 20 40 8 10 -10
11 -7 7 13 -4 14 -2 31 2 39 7 10 12 10 30 -5 11 -10 21 -23 21 -28 0 -5 -8
-2 -18 7 -10 10 -23 17 -28 17 -5 0 0 -7 11 -16 14 -10 16 -17 8 -22 -8 -5 -9
-12 -2 -22 7 -13 10 -13 18 -1 7 11 9 11 14 0 4 -12 7 -11 16 1 6 8 11 10 11
4 0 -8 66 -12 215 -13 143 -1 215 2 215 9 0 7 6 7 20 0 11 -6 60 -10 114 -8
82 3 93 5 83 18 -9 11 -6 11 8 -1 18 -15 56 -17 308 -18 224 0 286 2 280 12
-5 9 -4 9 8 0 11 -9 269 -12 1062 -12 l1048 0 10 22 10 22 -5 -22 -4 -22 774
0 774 -1 0 74 c0 50 -4 76 -12 79 -10 4 -10 6 -1 6 17 1 19 1381 2 1381 -8 0
-8 4 0 13 17 21 16 1434 -1 1440 -10 4 -10 6 0 6 18 1 18 1487 0 1494 -10 4
-10 6 -1 6 18 1 19 2247 1 2254 -10 4 -10 6 -1 6 19 1 19 1487 1 1494 -10 4
-10 6 0 6 8 1 12 22 12 71 l0 69 -1250 0 c-890 0 -1249 -3 -1244 -10 4 -8 0
-8 -14 0 -14 7 -422 11 -1381 11 l-1360 -1 0 -285z m2967 -36 c3 -124 -14
-110 135 -112 49 -1 91 2 94 7 2 4 9 4 15 1 16 -10 108 -11 108 -1 0 4 6 5 12
1 7 -5 143 -9 303 -10 159 -1 292 -2 295 -4 3 -1 10 -1 15 0 6 1 69 4 140 6
72 2 136 6 143 9 6 2 12 1 12 -4 0 -4 61 -8 135 -7 74 1 135 4 135 7 0 3 7 6
15 6 8 0 12 -3 11 -6 -2 -3 133 -6 301 -6 195 0 307 -3 312 -10 4 -5 7 -255 7
-555 -1 -310 2 -550 7 -557 5 -7 6 -13 1 -13 -5 0 -8 -308 -7 -702 2 -387 3
-707 3 -713 0 -5 -1 -533 -3 -1173 -1 -639 2 -1162 6 -1162 5 0 5 -6 0 -12
-10 -18 -10 -1428 1 -1428 5 0 4 -6 -1 -12 -5 -8 -8 -133 -8 -290 1 -153 -2
-278 -7 -278 -4 0 -11 0 -15 0 -11 0 -11 23 0 37 5 7 6 13 1 13 -9 0 -10 122
-1 137 3 5 3 14 -1 20 -4 6 -5 43 -2 82 3 39 3 71 -1 71 -3 0 -4 23 -3 52 2
28 -1 57 -7 64 -6 8 -6 14 0 18 14 9 12 106 -2 106 -9 0 -9 2 -1 8 8 5 11 118
12 384 0 207 3 382 7 388 3 5 1 10 -5 10 -8 0 -9 7 -5 17 4 10 7 25 7 33 -2
32 -3 338 -1 346 1 5 0 14 -1 19 -1 6 -2 59 -1 119 0 66 -4 115 -11 123 -6 8
-7 13 0 13 6 0 10 130 10 375 1 206 4 380 7 385 3 6 3 10 -2 10 -4 0 -8 66 -8
147 l0 148 -392 0 c-216 0 -393 3 -393 8 0 4 -6 5 -12 1 -7 -5 -204 -9 -438
-10 -234 -1 -427 -2 -429 -3 -2 0 2 -8 9 -16 7 -8 8 -15 3 -15 -5 0 -10 -6
-10 -12 -1 -34 -15 -117 -24 -153 -6 -22 -12 -44 -14 -50 -3 -13 -13 -39 -36
-90 -9 -22 -17 -44 -17 -48 -1 -5 -10 -17 -21 -26 -12 -10 -21 -22 -21 -27 0
-21 -129 -158 -206 -220 -47 -37 -154 -98 -154 -87 0 4 -4 3 -8 -3 -16 -24
-156 -59 -250 -63 -7 -1 -10 -6 -6 -13 5 -7 3 -8 -6 -3 -7 4 -60 9 -118 11
-157 5 -289 49 -426 143 -33 22 -64 37 -69 34 -6 -3 -7 -2 -4 4 3 5 -12 27
-34 49 -99 95 -173 214 -213 341 -24 76 -49 199 -46 218 2 6 2 15 1 20 -1 7
-145 10 -428 10 -369 0 -430 -2 -441 -15 -8 -9 -11 -10 -7 -2 6 11 -7 13 -63
10 -39 -1 -69 -1 -67 2 4 6 -645 3 -651 -3 -7 -7 -5 -287 1 -298 4 -5 10 -7
14 -5 4 3 8 -1 8 -9 0 -11 -4 -12 -13 -4 -19 16 -20 -1406 -2 -1429 11 -13 11
-14 0 -8 -11 6 -13 -21 -11 -143 2 -83 6 -151 11 -151 4 0 8 -5 8 -11 0 -5 -5
-7 -10 -4 -6 3 -10 -1 -10 -10 0 -9 4 -14 9 -11 5 3 15 -2 22 -11 12 -14 11
-15 -9 -9 l-22 7 0 -288 c0 -158 0 -398 1 -533 0 -135 0 -264 -1 -287 0 -24 3
-43 8 -43 6 0 13 -7 16 -16 5 -14 4 -15 -9 -4 -13 11 -15 2 -15 -74 0 -51 4
-86 10 -86 6 0 10 -5 10 -11 0 -5 -4 -8 -9 -5 -5 3 -9 -21 -9 -54 0 -33 4 -57
9 -54 5 3 9 0 9 -7 0 -7 8 -9 21 -6 12 3 18 3 15 0 -12 -13 39 -37 73 -35 25
2 32 -1 22 -7 -8 -5 -20 -7 -28 -4 -18 7 -17 -11 2 -27 8 -7 17 -27 21 -46 l6
-34 259 1 c230 2 259 4 261 18 1 9 3 106 5 216 1 110 3 209 3 220 0 11 0 244
-1 518 -1 274 1 500 4 503 2 3 88 5 191 6 132 0 186 4 186 12 0 8 2 8 8 0 5
-9 114 -12 389 -12 331 -1 382 1 387 14 3 9 11 12 17 8 7 -4 9 -3 6 3 -14 23
198 202 241 203 6 0 12 3 12 8 0 9 29 21 135 58 72 25 94 28 220 28 77 1 156
-3 175 -7 19 -5 44 -10 55 -11 39 -7 155 -50 155 -58 0 -4 7 -8 16 -8 36 0
240 -162 228 -181 -3 -5 2 -9 11 -9 9 0 14 -4 11 -8 -3 -5 7 -16 22 -24 25
-15 91 -17 582 -17 305 0 563 0 572 -1 16 0 17 -47 17 -736 0 -741 1 -768 32
-748 4 2 116 4 248 4 l240 0 12 38 c15 48 66 100 106 108 19 3 35 14 38 24 3
10 5 104 4 207 -3 177 1 213 20 213 5 0 8 -138 7 -307 l-1 -308 -80 -2 c-44
-2 -87 -3 -95 -3 -14 0 -1250 1 -1505 1 -66 0 -137 0 -158 -1 -22 0 -46 5 -55
12 -11 9 -14 9 -9 1 6 -9 -24 -12 -126 -11 -73 1 -139 -2 -145 -6 -7 -4 -12
-30 -12 -57 0 -67 -23 -61 -28 7 -2 27 -5 50 -7 52 -1 1 -141 4 -311 5 l-309
2 -2 -34 c-2 -19 -5 -37 -8 -39 -3 -3 0 -11 6 -18 7 -8 6 -14 -2 -19 -17 -11
-26 11 -24 60 l2 45 -36 1 c-40 1 -864 0 -1115 0 -113 -1 -163 3 -174 11 -13
10 -14 10 -8 1 6 -10 -47 -12 -248 -10 -197 1 -257 -1 -261 -10 -2 -7 -10 -13
-17 -13 -9 0 -8 3 2 10 13 8 12 10 -2 10 -10 0 -18 -5 -18 -11 0 -6 -5 -5 -13
3 -9 9 -36 12 -91 10 -65 -3 -75 -6 -65 -18 6 -8 8 -14 4 -14 -4 0 -13 7 -19
16 -8 10 -29 16 -64 17 -29 0 -55 4 -57 8 -4 5 -6 214 -4 354 0 16 0 173 0
210 -1 410 -3 445 -19 446 -15 1 -15 2 0 6 25 6 28 80 4 95 -8 6 -8 8 2 8 7 0
12 13 12 31 0 21 -4 28 -12 23 -10 -6 -10 -4 0 8 10 12 12 91 12 339 0 178 0
376 0 439 2 451 -1 590 -13 590 -9 0 -9 2 0 8 11 7 16 319 11 652 0 8 1 51 2
95 1 44 1 85 0 90 -1 6 -2 13 -2 16 2 21 3 152 2 401 0 157 0 290 1 295 1 4 1
30 0 58 -1 38 -4 46 -13 37 -7 -7 -16 -12 -21 -12 -5 0 1 8 12 18 20 16 22 26
21 127 0 61 0 193 0 295 1 243 2 234 -11 239 -8 2 -8 5 0 10 8 5 11 102 10
322 0 172 0 321 0 329 0 8 0 83 1 165 4 370 -2 615 -13 615 -9 0 -8 3 0 8 11
7 16 319 11 652 0 8 1 51 2 95 1 44 1 85 0 90 -1 6 -2 13 -2 16 2 12 3 119 3
229 0 68 4 117 10 121 6 3 205 5 442 4 238 0 442 2 454 7 12 4 24 4 27 0 2 -4
137 -7 300 -6 233 0 299 -3 308 -13 6 -7 9 -13 7 -13 -2 0 -186 -1 -409 -3
l-405 -2 0 -725 0 -724 1712 -1 c969 0 1713 4 1713 9 0 5 6 4 13 -1 17 -14
140 -9 145 5 7 23 32 12 32 -13 0 -20 -5 -25 -27 -25 -51 -1 -396 -1 -518 0
-211 1 -557 -1 -591 -3 -11 -1 -52 -34 -90 -73 -38 -39 -85 -83 -104 -97 -174
-125 -380 -177 -607 -152 -64 8 -209 52 -269 83 -97 50 -233 167 -215 185 8 8
25 -2 64 -39 151 -143 316 -206 545 -205 51 0 121 5 155 12 106 19 288 103
269 124 -4 5 -2 5 5 2 16 -10 151 105 177 150 5 9 -27 12 -126 13 -73 0 -140
1 -148 1 -8 0 -116 0 -240 -1 -124 0 -324 0 -445 0 -323 1 -291 3 -272 -18 10
-10 17 -22 17 -25 0 -15 -24 -6 -45 17 -22 23 -24 24 -246 25 -123 1 -231 2
-239 2 -8 0 -102 0 -209 0 -141 -1 -198 -4 -209 -13 -11 -9 -14 -10 -9 -1 6 9
-24 12 -124 12 -72 0 -134 2 -136 5 -3 2 -6 186 -7 408 -1 222 -5 409 -9 416
-5 6 -4 12 2 12 12 0 8 150 -4 170 -5 8 -4 11 2 7 6 -4 9 79 9 225 l-1 232
-222 4 c-138 2 -228 0 -239 -6 -12 -7 -25 -7 -37 0 -25 13 -33 3 -16 -19 9
-11 10 -14 1 -9 -8 5 -15 -1 -21 -16 -5 -13 -18 -32 -30 -42 -28 -25 -27 -36
4 -30 14 2 25 1 25 -4 0 -5 -17 -9 -38 -10 -20 -1 -52 -4 -70 -8 l-32 -6 0
-74 c0 -41 4 -74 9 -74 5 0 12 -7 15 -16 5 -14 4 -15 -9 -4 -13 11 -15 -7 -15
-161 -1 -96 -1 -183 -1 -194 -5 -283 4 -2575 10 -2575 5 0 12 -7 15 -16 6 -14
4 -15 -9 -4 -14 12 -16 4 -15 -81 0 -52 0 -154 0 -228 1 -74 3 -137 5 -141 2
-3 96 -7 210 -7 125 -1 203 2 200 8 -4 5 3 6 17 0 19 -7 289 -10 818 -10 63 0
183 0 266 0 l151 0 -2 41 c-5 160 100 402 229 528 30 29 52 58 49 63 -4 6 -1
7 7 2 7 -4 15 -3 19 2 11 17 110 81 166 108 176 83 374 102 571 55 47 -11 91
-17 96 -13 6 3 8 1 5 -4 -6 -10 39 -37 73 -45 8 -2 17 -5 20 -8 3 -3 30 -22
60 -42 151 -103 280 -268 334 -430 16 -47 34 -149 38 -213 l3 -40 832 -1 832
-2 3 79 c2 44 0 79 -3 79 -3 0 -4 25 -2 55 2 36 -1 55 -8 55 -8 0 -8 4 -1 13
14 16 13 98 0 115 -6 7 -7 12 -1 12 6 0 10 78 11 193 1 105 2 194 2 197 1 3 0
46 -1 95 -1 50 -2 118 -2 153 0 34 -4 62 -9 62 -5 0 -6 6 -1 13 13 20 13 80 0
96 -7 9 -7 12 -1 8 8 -4 11 101 12 374 1 208 4 384 7 389 3 6 3 10 -2 10 -7 0
-8 75 -3 325 1 44 1 85 0 90 -1 6 -2 34 -1 63 0 30 -5 52 -11 52 -7 0 -7 4 0
13 6 7 10 168 10 444 0 238 3 436 6 442 3 5 1 11 -5 13 -7 2 -7 12 0 31 6 15
7 27 3 27 -4 0 -7 16 -7 36 0 33 -3 37 -47 54 -26 10 -50 15 -54 11 -4 -3 -4
-1 0 6 3 6 2 14 -4 18 -9 6 -42 63 -51 90 -3 6 -101 10 -264 11 l-260 1 2
-416 c1 -229 2 -450 3 -491 0 -41 1 -173 0 -292 0 -189 -2 -218 -15 -218 -14
0 -15 39 -15 323 0 637 0 661 13 669 9 6 9 8 0 8 -8 0 -12 50 -12 186 0 102
-3 189 -6 194 -3 5 -1 11 5 15 6 4 8 11 4 16 -7 12 -117 7 -126 -6 -5 -6 -8
-6 -8 1 0 8 -120 11 -414 12 l-415 1 1 -238 c0 -131 -2 -243 -6 -249 -9 -14
-1644 -12 -1655 2 -11 15 -10 48 2 64 6 8 6 12 -2 12 -7 0 -10 51 -9 166 2
136 0 167 -12 174 -13 8 -13 10 1 10 11 0 14 7 11 28 -3 25 -8 29 -40 30 -46
2 -63 18 -25 25 15 3 130 5 256 4 125 -1 227 2 227 6 0 5 6 5 13 0 6 -4 24 -8
38 -8 l26 0 -3 90 c-2 53 2 95 8 102 7 9 7 13 -1 13 -7 0 -10 4 -7 9 4 5 151
8 344 8 l337 -2 3 -107z"/>
<path d="M2317 8153 c-2 -5 -3 -48 -3 -98 l1 -90 315 0 315 0 -1 95 -2 95
-310 3 c-171 1 -312 -1 -315 -5z"/>
<path d="M2786 7943 c-1 -1 -178 -3 -394 -4 -281 -1 -392 -5 -392 -13 0 -8 -2
-8 -8 0 -4 7 -38 11 -87 10 l-80 -1 -3 -232 -3 -232 806 1 805 0 1 32 c1 17 1
42 0 56 -2 30 -2 37 0 75 3 76 -1 106 -13 99 -10 -6 -10 -4 0 8 13 17 23 124
15 169 -5 25 -6 26 -95 27 -65 2 -87 -1 -82 -9 5 -8 3 -9 -7 -4 -7 5 -83 10
-169 12 -85 1 -186 4 -223 5 -38 2 -70 2 -71 1z"/>
<path d="M2505 4999 c-154 -21 -307 -98 -444 -221 -22 -21 -41 -42 -41 -47 0
-5 -4 -11 -8 -13 -16 -6 -90 -114 -112 -163 -27 -59 -61 -160 -66 -195 -2 -14
-6 -53 -10 -87 l-6 -62 378 0 c363 0 378 1 392 20 17 24 43 24 73 0 23 -17 47
-19 397 -19 l372 1 1 21 c4 98 -25 216 -83 331 -44 87 -122 190 -151 200 -10
4 -16 9 -13 12 16 16 -187 153 -250 169 -16 4 -38 13 -49 20 -53 32 -256 50
-380 33z"/>
<path d="M1825 4118 c17 -197 88 -341 240 -495 45 -46 86 -83 90 -83 4 0 23
-12 42 -26 40 -30 159 -86 176 -82 7 1 21 -3 33 -9 47 -27 328 -39 394 -18 10
3 27 8 37 10 38 8 120 41 167 68 27 15 51 27 55 27 10 0 86 70 86 80 0 4 4 12
9 17 5 5 6 3 2 -4 -10 -18 9 -16 24 2 6 8 9 19 5 25 -4 6 -3 9 2 8 4 -2 19 5
33 15 13 9 22 17 18 17 -3 0 10 17 29 38 43 46 85 121 76 135 -3 5 -2 7 3 4
10 -6 67 131 70 168 1 11 7 51 12 89 6 38 9 72 7 75 -1 3 -172 6 -377 6 -342
0 -376 -2 -392 -18 -22 -22 -50 -22 -72 0 -16 16 -50 18 -396 18 l-379 0 6
-67z"/>
<path d="M2533 2237 c-35 -6 -63 -13 -63 -17 0 -5 -9 -6 -19 -3 -46 12 -213
-63 -305 -135 -68 -55 -135 -121 -136 -134 0 -4 115 -7 255 -6 145 1 255 5
255 10 0 5 6 6 13 1 6 -4 45 -9 85 -10 73 -1 92 -6 78 -20 -4 -5 -425 -8 -934
-8 l-927 0 -1 -710 c0 -391 1 -718 4 -727 2 -10 13 -18 23 -18 13 0 17 5 12
18 -5 16 -5 16 8 0 11 -13 30 -16 94 -15 57 2 79 6 78 14 -2 7 4 10 13 6 11
-4 12 -8 4 -13 -21 -13 4 -15 115 -12 78 2 104 6 98 15 -5 9 -3 9 8 0 9 -7 89
-11 252 -12 132 -1 242 -3 246 -5 3 -2 6 106 5 240 -1 158 2 246 8 250 6 4
192 7 414 8 342 1 404 -1 404 -12 0 -12 -15 -13 -77 -8 -43 3 -105 2 -138 -2
-33 -4 -90 -5 -128 -2 -37 3 -67 2 -67 -1 0 -3 -33 -4 -72 -2 -120 5 -299 3
-309 -3 -5 -3 -9 -108 -8 -235 l0 -229 167 -1 c92 0 174 0 182 0 8 -1 161 0
340 1 228 1 329 5 339 13 12 9 13 9 7 0 -5 -10 29 -13 153 -12 142 0 160 2
164 17 4 16 5 16 6 0 1 -15 16 -16 128 -15 l127 2 -1 224 c-1 171 -4 226 -14
232 -7 4 -183 8 -391 8 -208 0 -383 3 -389 7 -28 17 28 23 188 19 129 -3 173
-1 173 8 0 9 2 9 8 1 8 -13 199 -13 219 -1 6 4 14 3 18 -3 8 -13 55 -9 55 5 0
7 3 7 8 0 9 -13 85 -13 94 0 5 6 8 5 8 -4 0 -7 6 -11 13 -8 38 14 41 -5 40
-229 -2 -137 2 -224 8 -237 8 -14 8 -18 0 -13 -6 4 -11 2 -11 -3 0 -7 27 -11
68 -11 47 0 63 3 52 10 -9 6 -10 10 -3 10 6 0 14 -4 18 -9 3 -6 168 -10 415
-10 l410 -1 1 43 c0 23 1 73 0 112 0 43 5 72 12 77 9 6 9 8 -1 8 -9 0 -12 47
-12 208 1 115 0 213 -1 218 -1 5 -1 11 0 14 1 4 2 560 1 725 l0 50 -848 -1
c-466 0 -853 -3 -859 -7 -7 -5 -9 0 -6 12 3 11 12 20 21 20 10 1 133 1 276 2
l258 1 -26 27 c-14 15 -23 30 -19 34 3 4 0 7 -9 7 -8 0 -25 12 -39 26 -32 34
-145 108 -214 139 -122 56 -293 81 -422 62z"/>
</g>
</svg>
